<svg xmlns="http://www.w3.org/2000/svg" viewBox="0 0 1200 800" role="img" aria-label="Sveti Vlas">
  <defs>
    <linearGradient id="bg" x1="0" y1="0" x2="1" y2="1">
      <stop offset="0" stop-color="#FDF8F2"/>
      <stop offset="0.52" stop-color="#D9E8E0"/>
      <stop offset="1" stop-color="#F4E5D5"/>
    </linearGradient>
    <linearGradient id="gold" x1="0" y1="0" x2="1" y2="1">
      <stop offset="0" stop-color="#F3D9B6"/>
      <stop offset="1" stop-color="#D4A373"/>
    </linearGradient>
    <radialGradient id="glow" cx="50%" cy="30%" r="65%">
      <stop offset="0" stop-color="#fff" stop-opacity=".75"/>
      <stop offset="1" stop-color="#fff" stop-opacity="0"/>
    </radialGradient>
    <filter id="shadow" x="-20%" y="-20%" width="140%" height="140%">
      <feDropShadow dx="0" dy="28" stdDeviation="22" flood-color="#3D2B1A" flood-opacity=".16"/>
    </filter>
  </defs>
  <rect width="1200" height="800" fill="url(#bg)"/>
  <rect width="1200" height="800" fill="url(#glow)"/>
  <path d="M0 548 C170 492 270 612 462 562 C640 516 730 430 926 474 C1058 504 1130 458 1200 424 L1200 800 L0 800 Z" fill="#D8E7E2" opacity=".76"/>
  <path d="M0 604 C160 560 282 654 462 620 C662 582 780 510 958 552 C1068 578 1135 536 1200 504 L1200 800 L0 800 Z" fill="#F8E9D4" opacity=".9"/>
  <circle cx="938" cy="170" r="150" fill="url(#gold)" opacity=".42"/>
  <circle cx="1004" cy="238" r="92" fill="#fff" opacity=".38"/>
  <g filter="url(#shadow)">
    <rect x="118" y="184" width="522" height="332" rx="34" fill="#FFF9EF" opacity=".93"/>
    <rect x="154" y="222" width="224" height="54" rx="10" fill="#F2E1CF"/>
    <rect x="154" y="306" width="380" height="16" rx="8" fill="#D8C5B4" opacity=".8"/>
    <rect x="154" y="342" width="334" height="16" rx="8" fill="#D8C5B4" opacity=".58"/>
    <rect x="154" y="378" width="270" height="16" rx="8" fill="#D8C5B4" opacity=".5"/>
    <rect x="154" y="436" width="118" height="40" rx="20" fill="url(#gold)"/>
    <path d="M520 214 L604 278 L520 342 Z" fill="#2F5D4A" opacity=".22"/>
  </g>
  <g filter="url(#shadow)">
    <rect x="678" y="354" width="334" height="192" rx="32" fill="#FFFFFF" opacity=".84"/>
    <path d="M718 486 C762 426 802 438 840 398 C904 332 970 366 1002 414 L1002 546 L718 546 Z" fill="#2F5D4A" opacity=".25"/>
    <path d="M718 500 C782 456 824 502 874 466 C942 418 962 452 1002 436 L1002 546 L718 546 Z" fill="#D4A373" opacity=".38"/>
  </g>
  <g opacity=".82">
    <path d="M792 144 h170 a16 16 0 0 1 16 16 v90 a16 16 0 0 1-16 16 H792 a16 16 0 0 1-16-16 v-90 a16 16 0 0 1 16-16z" fill="#fff" opacity=".62"/>
    <path d="M812 172 h134 M812 204 h116 M812 236 h78" stroke="#B5835A" stroke-width="10" stroke-linecap="round" opacity=".55"/>
  </g>
  <text x="92" y="696" fill="#3D2B1A" font-family="Georgia, 'Times New Roman', serif" font-size="58" font-weight="700">Sveti Vlas</text>
  <text x="96" y="744" fill="#6B5344" font-family="Arial, sans-serif" font-size="26">Sea property · apartments · villas</text>
</svg>